:FULLY-SPECIFIED
:DEGREES
2598
root 7.6612 16.7436 -1.65974 7602.07 -93.5118 -7587.94
lowerback -0.259887 -0.700538 -5.15806
upperback 1.10602 -0.893782 -0.112668
thorax 1.36116 -0.505509 2.76158
lowerneck -16.501 -7.95375 -5.56941
upperneck 27.9909 -12.14 5.39058
head 12.7462 -5.48567 0.984545
rclavicle 1.82882e-014 7.32708e-015
rhumerus -26.6674 2.08623 -87.7495
rradius 40.3421
rwrist 22.3499
rhand -19.2507 -7.17198
rfingers 7.12502
rthumb 7.06317 -37.0341
lclavicle 1.82882e-014 7.32708e-015
lhumerus -34.109 -5.86633 86.9736
lradius 28.8157
lwrist 2.66393
lhand -23.5285 5.46826
lfingers 7.12502
lthumb 2.93276 35.4278
rfemur -37.0952 -5.98133 16.8759
rtibia 73.6603
rfoot 0.307194 3.63921
rtoes -10.2338
lfemur -28.9793 0.745813 -24.3706
ltibia 31.9645
lfoot -13.0739 2.60106
ltoes -7.26276
2599
root 7.68143 16.7441 -1.64004 7603.45 -93.7086 -7589.19
lowerback -0.424156 -0.781931 -5.24429
upperback 1.09965 -0.991681 -0.0473501
thorax 1.4583 -0.557771 2.87319
lowerneck -16.5435 -7.79062 -5.56089
upperneck 27.8457 -11.9187 5.5062
head 12.6895 -5.37321 1.06505
rclavicle 1.66979e-014 -3.8266e-015
rhumerus -26.771 1.59985 -87.5354
rradius 39.5074
rwrist 22.8469
rhand -18.8584 -6.73757
rfingers 7.12502
rthumb 7.4418 -36.5867
lclavicle 1.66979e-014 -3.8266e-015
lhumerus -33.6053 -6.47993 87.0935
lradius 29.7677
lwrist 3.43804
lhand -24.3557 5.49652
lfingers 7.12502
lthumb 2.13386 35.4656
rfemur -38.9452 -6.1382 16.9575
rtibia 73.2987
rfoot -0.143091 4.10706
rtoes -11.2861
lfemur -28.2007 0.556133 -24.6552
ltibia 31.8177
lfoot -13.6862 2.78324
ltoes -7.13676
2600
root 7.69244 16.7408 -1.62937 7609.89 -93.4772 -7596.01
lowerback -0.0716954 -1.00111 -5.38085
upperback 1.2403 -1.30227 0.0535981
thorax 1.43879 -0.717914 3.05231
lowerneck -16.6565 -7.62583 -5.44632
upperneck 27.759 -11.6933 5.50898
head 12.6544 -5.25903 1.08343
rclavicle -7.95139e-016 -4.67144e-015
rhumerus -26.8993 1.08324 -87.273
rradius 38.6762
rwrist 23.0695
rhand -18.5462 -6.48422
rfingers 7.12502
rthumb 7.74318 -36.3224
lclavicle -7.95139e-016 -4.67144e-015
lhumerus -33.055 -6.95357 87.1321
lradius 30.6488
lwrist 4.02823
lhand -25.4239 5.18772
lfingers 7.12502
lthumb 1.1022 35.1646
rfemur -39.9275 -6.64759 17.0631
rtibia 72.6247
rfoot -0.7702 4.36033
rtoes -10.5127
lfemur -26.8231 0.269323 -24.9294
ltibia 31.6808
lfoot -14.2315 2.68059
ltoes -7.30526
2601
root 7.70867 16.7405 -1.6159 7613.45 -93.4863 -7599.66
lowerback 0.0827105 -1.15307 -5.52154
upperback 1.25361 -1.51412 0.168533
thorax 1.39286 -0.825146 3.24912
lowerneck -16.7131 -7.45127 -5.44118
upperneck 27.6822 -11.4531 5.58852
head 12.6243 -5.14215 1.15257
rclavicle -9.54166e-015 -4.51241e-014
rhumerus -27.0577 0.592341 -87.0035
rradius 37.8405
rwrist 23.0631
rhand -18.3194 -6.46177
rfingers 7.12502
rthumb 7.9621 -36.2918
lclavicle -9.54166e-015 -4.51241e-014
lhumerus -32.5289 -7.37336 87.1571
lradius 31.6014
lwrist 4.81303
lhand -25.92 5.37717
lfingers 7.12502
lthumb 0.623047 35.356
rfemur -41.2245 -6.86278 17.1828
rtibia 71.6863
rfoot -1.23735 4.57518
rtoes -9.95786
lfemur -25.7656 0.259859 -25.2473
ltibia 31.5059
lfoot -14.6325 2.72923
ltoes -8.96072
2602
root 7.72347 16.7329 -1.60443 7613.07 -93.5842 -7599.4
lowerback 0.248249 -1.20415 -5.57486
upperback 1.26551 -1.59294 0.28732
thorax 1.32501 -0.864257 3.40403
lowerneck -16.7832 -7.2878 -5.43369
upperneck 27.6577 -11.2356 5.66369
head 12.6189 -5.03477 1.21468
rclavicle 4.77083e-015 1.5704e-014
rhumerus -27.2531 -0.0251834 -86.7116
rradius 37.037
rwrist 22.9294
rhand -18.1423 -6.65688
rfingers 7.12502
rthumb 8.13295 -36.4804
lclavicle 4.77083e-015 1.5704e-014
lhumerus -32.0024 -7.83979 87.1566
lradius 32.5195
lwrist 5.57906
lhand -26.6197 5.37162
lfingers 7.12502
lthumb -0.0527614 35.3514
rfemur -42.4419 -6.76865 17.4264
rtibia 70.4699
rfoot -1.64111 4.71111
rtoes -10.1428
lfemur -24.6794 0.294876 -25.4421
ltibia 31.3428
lfoot -15.3121 2.78388
ltoes -7.51067
2603
root 7.738 16.7285 -1.5947 7615.64 -93.4792 -7601.97
lowerback 0.357446 -1.32892 -5.55109
upperback 1.24498 -1.76714 0.39927
thorax 1.26298 -0.949384 3.50677
lowerneck -16.7709 -7.14442 -5.40981
upperneck 27.549 -11.0571 5.77503
head 12.5667 -4.94179 1.28463
rclavicle -2.3059e-014 -2.60408e-014
rhumerus -27.4256 -0.83564 -86.3699
rradius 36.179
rwrist 22.9466
rhand -18.1715 -6.69662
rfingers 7.12502
rthumb 8.10477 -36.5212
lclavicle -2.3059e-014 -2.60408e-014
lhumerus -31.3647 -8.23036 87.0502
lradius 33.3513
lwrist 6.30925
lhand -27.0764 5.16292
lfingers 7.12502
lthumb -0.493863 35.1421
rfemur -43.5922 -6.85772 17.7275
rtibia 68.9646
rfoot -2.04835 4.68029
rtoes -9.81673
lfemur -23.7189 0.216632 -25.5931
ltibia 31.1668
lfoot -15.8922 2.7885
ltoes -7.50541
2604
root 7.75442 16.7227 -1.58741 7617.33 -93.3821 -7603.59
lowerback 0.402909 -1.43623 -5.48671
upperback 1.189 -1.91463 0.512267
thorax 1.19657 -1.01968 3.58746
lowerneck -16.6626 -6.99521 -5.46655
upperneck 27.381 -10.8797 5.99574
head 12.4841 -4.84794 1.41183
rclavicle -1.59028e-015 3.06128e-014
rhumerus -27.5954 -1.77111 -86.0037
rradius 35.244
rwrist 22.9241
rhand -18.2238 -6.8834
rfingers 7.12502
rthumb 8.05435 -36.7099
lclavicle -1.59028e-015 3.06128e-014
lhumerus -30.769 -8.63266 86.8953
lradius 34.2966
lwrist 7.20981
lhand -27.33 5.0861
lfingers 7.12502
lthumb -0.738813 35.0646
rfemur -44.723 -6.79039 18.0775
rtibia 67.1472
rfoot -2.5354 4.58171
rtoes -9.85624
lfemur -22.8288 0.0191912 -25.6771
ltibia 30.9708
lfoot -16.3362 2.9559
ltoes -7.1421
2605
root 7.76882 16.7154 -1.5824 7619.54 -93.318 -7605.71
lowerback 0.395489 -1.54296 -5.45643
upperback 1.14995 -2.05754 0.598877
thorax 1.17742 -1.08968 3.65843
lowerneck -16.6941 -6.86013 -5.4666
upperneck 27.3179 -10.7273 6.16049
head 12.466 -4.76046 1.49879
rclavicle -2.14687e-014 1.51076e-014
rhumerus -27.7405 -2.62375 -85.6799
rradius 34.3167
rwrist 22.5361
rhand -18.5136 -7.3252
rfingers 7.12502
rthumb 7.77464 -37.1623
lclavicle -2.14687e-014 1.51076e-014
lhumerus -30.0928 -9.07994 86.6981
lradius 35.1106
lwrist 7.87703
lhand -27.7976 5.00391
lfingers 7.12502
lthumb -1.19043 34.9803
rfemur -45.7158 -6.67703 18.3524
rtibia 65.0368
rfoot -3.00623 4.40226
rtoes -9.93228
lfemur -21.9163 -0.197177 -25.8011
ltibia 30.7013
lfoot -16.8746 3.25176
ltoes -7.9847
2606
root 7.78106 16.7117 -1.57948 7621.38 -93.1321 -7607.44
lowerback 0.33754 -1.65865 -5.30502
upperback 1.15838 -2.20894 0.704984
thorax 1.23268 -1.16597 3.67882
lowerneck -16.7803 -6.72116 -5.43735
upperneck 27.2596 -10.5761 6.33046
head 12.4595 -4.66758 1.58096
rclavicle 7.95139e-016 -1.90833e-014
rhumerus -27.8467 -3.60068 -85.3007
rradius 33.3875
rwrist 22.2774
rhand -18.867 -7.4622
rfingers 7.12502
rthumb 7.43353 -37.3116
lclavicle 7.95139e-016 -1.90833e-014
lhumerus -29.3839 -9.60655 86.4449
lradius 36.0397
lwrist 8.66099
lhand -28.1095 4.91314
lfingers 7.12502
lthumb -1.49168 34.8877
rfemur -46.5285 -6.44916 18.7122
rtibia 62.597
rfoot -3.5073 4.05844
rtoes -9.93386
lfemur -20.958 -0.602053 -25.7654
ltibia 30.3662
lfoot -17.4695 3.66724
ltoes -8.17756
2607
root 7.7948 16.7041 -1.57795 7623.89 -93.0363 -7609.75
lowerback 0.214335 -1.76435 -5.27489
upperback 1.12733 -2.34396 0.815514
thorax 1.28737 -1.23437 3.7704
lowerneck -16.9459 -6.60965 -5.37567
upperneck 27.278 -10.443 6.3862
head 12.4912 -4.58977 1.60926
rclavicle 2.06736e-014 -1.51076e-014
rhumerus -27.9199 -4.53149 -84.9011
rradius 32.4673
rwrist 22.0262
rhand -19.253 -8.10815
rfingers 7.12502
rthumb 7.06092 -37.9704
lclavicle 2.06736e-014 -1.51076e-014
lhumerus -28.6536 -9.87762 86.1611
lradius 36.9491
lwrist 9.04254
lhand -28.3089 4.9738
lfingers 7.12502
lthumb -1.68429 34.9469
rfemur -47.3153 -6.20666 18.9609
rtibia 59.8766
rfoot -3.95003 3.71119
rtoes -10.1878
lfemur -20.0578 -0.997354 -25.8179
ltibia 29.919
lfoot -17.96 4.03557
ltoes -8.39795
2608
root 7.80658 16.7001 -1.57809 7625.66 -92.7641 -7611.37
lowerback 0.148333 -1.89382 -5.05537
upperback 1.12332 -2.51506 0.967022
thorax 1.3353 -1.3196 3.79826
lowerneck -16.9838 -6.4516 -5.35922
upperneck 27.1437 -10.2514 6.55681
head 12.4417 -4.48223 1.7026
rclavicle -1.03368e-014 -1.59028e-015
rhumerus -27.9931 -5.48968 -84.4657
rradius 31.5037
rwrist 22.0833
rhand -19.5122 -8.79518
rfingers 7.12502
rthumb 6.81069 -38.6656
lclavicle -1.03368e-014 -1.59028e-015
lhumerus -27.9683 -10.2424 85.8643
lradius 37.9015
lwrist 9.63015
lhand -28.5517 4.86037
lfingers 7.12502
lthumb -1.91875 34.8315
rfemur -47.8373 -5.93681 19.3717
rtibia 56.8333
rfoot -4.3467 3.19984
rtoes -10.876
lfemur -19.0426 -1.30247 -25.6744
ltibia 29.3634
lfoot -18.3744 4.40246
ltoes -8.91495
2609
root 7.81945 16.7 -1.58123 7628.89 -92.5842 -7614.4
lowerback 0.0161286 -2.00766 -4.9665
upperback 1.11015 -2.66168 1.09335
thorax 1.41317 -1.39442 3.87124
lowerneck -17.1367 -6.33959 -5.3037
upperneck 27.1151 -10.12 6.64577
head 12.4547 -4.40221 1.74494
rclavicle -1.51076e-014 5.56597e-015
rhumerus -28.0342 -6.55772 -83.9736
rradius 30.4708
rwrist 22.2589
rhand -19.9523 -9.25722
rfingers 7.12502
rthumb 6.38588 -39.141
lclavicle -1.51076e-014 5.56597e-015
lhumerus -27.2427 -10.5807 85.5325
lradius 38.8576
lwrist 10.1002
lhand -28.7207 4.87309
lfingers 7.12502
lthumb -2.08192 34.8427
rfemur -48.2713 -5.62771 19.608
rtibia 53.5202
rfoot -4.52266 2.73432
rtoes -11.1553
lfemur -18.0746 -1.60443 -25.6241
ltibia 28.7356
lfoot -18.7052 4.67311
ltoes -9.15
2610
root 7.82822 16.6965 -1.58377 7631.64 -92.4649 -7616.98
lowerback -0.049098 -2.09534 -4.89068
upperback 1.07011 -2.77743 1.20448
thorax 1.42253 -1.45153 3.93933
lowerneck -17.2404 -6.22067 -5.27039
upperneck 27.1119 -9.96974 6.70516
head 12.4654 -4.32155 1.7846
rclavicle -4.77083e-015 9.14409e-015
rhumerus -28.2027 -7.73996 -83.3897
rradius 29.4496
rwrist 22.9021
rhand -20.2765 -9.70285
rfingers 7.12502
rthumb 6.07286 -39.5958
lclavicle -4.77083e-015 9.14409e-015
lhumerus -26.6281 -10.8057 85.2207
lradius 39.8398
lwrist 10.5562
lhand -28.8035 4.97208
lfingers 7.12502
lthumb -2.16196 34.9409
rfemur -48.4829 -5.3014 19.7539
rtibia 49.9516
rfoot -4.54346 2.18824
rtoes -11.1191
lfemur -16.9955 -1.84834 -25.6132
ltibia 28.0163
lfoot -18.9817 4.87928
ltoes -9.06623
2611
root 7.83845 16.6903 -1.58894 7633.89 -92.2114 -7619.01
lowerback -0.118502 -2.18872 -4.68954
upperback 1.02018 -2.90257 1.37282
thorax 1.42173 -1.51202 3.99585
lowerneck -17.3507 -6.11008 -5.27599
upperneck 27.0652 -9.82633 6.80829
head 12.4657 -4.24221 1.84597
rclavicle -3.33958e-014 2.38542e-014
rhumerus -28.3754 -8.57148 -82.8737
rradius 28.5437
rwrist 22.8348
rhand -20.778 -10.2181
rfingers 7.12502
rthumb 5.5887 -40.1244
lclavicle -3.33958e-014 2.38542e-014
lhumerus -26.0362 -11.0324 84.942
lradius 40.8049
lwrist 11.0478
lhand -29.0189 4.88549
lfingers 7.12502
lthumb -2.36998 34.8521
rfemur -48.5917 -4.99016 20.0478
rtibia 46.1792
rfoot -4.52119 1.65422
rtoes -11.0928
lfemur -15.9167 -1.94804 -25.4453
ltibia 27.1778
lfoot -19.0565 5.17262
ltoes -9.76073
2612
root 7.84839 16.6857 -1.59718 7638.24 -92.1539 -7623.16
lowerback -0.154229 -2.27416 -4.72503
upperback 0.986117 -3.01612 1.46542
thorax 1.42568 -1.56927 4.10815
lowerneck -17.5183 -5.98886 -5.16587
upperneck 27.0191 -9.69021 6.88153
head 12.4701 -4.15608 1.87416
rclavicle -3.33958e-014 5.56597e-015
rhumerus -28.5222 -9.56819 -82.3199
rradius 27.5862
rwrist 23.4437
rhand -21.1691 -10.955
rfingers 7.12502
rthumb 5.21107 -40.8709
lclavicle -3.33958e-014 5.56597e-015
lhumerus -25.4152 -11.2672 84.6035
lradius 41.7479
lwrist 11.5619
lhand -29.2511 4.61349
lfingers 7.12502
lthumb -2.59421 34.5775
rfemur -48.5701 -4.59973 20.038
rtibia 42.2604
rfoot -4.36154 0.901571
rtoes -10.2379
lfemur -14.8065 -1.96043 -25.4683
ltibia 26.2784
lfoot -19.0883 5.24295
ltoes -10.084
